<svg version="1.1" id="Layer_1" xmlns="http://www.w3.org/2000/svg" xmlns:xlink="http://www.w3.org/1999/xlink" x="0px" y="0px"
                 width="5%" viewBox="0 0 607 586" enable-background="new 0 0 607 586" xml:space="preserve">
                <path fill="#000000" opacity="1.000000" stroke="none"
                      d="M404.000000,587.000000
        C269.333344,587.000000 135.166672,587.000000 1.000000,587.000000
        C1.000000,391.666656 1.000000,196.333328 1.000000,1.000000
        C203.333328,1.000000 405.666656,1.000000 608.000000,1.000000
        C608.000000,196.333328 608.000000,391.666656 608.000000,587.000000
        C540.166687,587.000000 472.333344,587.000000 404.000000,587.000000
    M450.596344,104.883743
        C459.891022,113.684677 469.774963,121.954971 478.313538,131.436768
        C486.741852,140.796097 494.480469,150.949875 501.286530,161.548279
        C508.182831,172.287262 514.304993,183.675507 519.404907,195.372879
        C524.438477,206.918106 528.443115,219.028397 531.655090,231.218582
        C534.846619,243.331070 536.489319,255.851669 538.661072,267.395050
        C538.661072,196.501465 538.661072,124.805351 538.661072,53.218521
        C465.755585,53.218521 393.191040,53.218521 320.626495,53.218521
        C368.837738,57.568100 412.033844,74.418983 450.596344,104.883743
    M180.100098,490.467804
        C113.559975,448.203827 76.620827,387.476959 67.259575,309.550781
        C67.259575,381.277618 67.259575,453.004425 67.259575,524.705994
        C139.407089,524.705994 211.292740,524.705994 283.178406,524.705994
        C246.491348,520.959778 212.309006,509.854645 180.100098,490.467804
    z"/>
                <path fill="#FEFEFE" opacity="1.000000" stroke="none"
                      d="M450.316040,104.665649
        C412.033844,74.418983 368.837738,57.568100 320.626495,53.218521
        C393.191040,53.218521 465.755585,53.218521 538.661072,53.218521
        C538.661072,124.805351 538.661072,196.501465 538.661072,267.395050
        C536.489319,255.851669 534.846619,243.331070 531.655090,231.218582
        C528.443115,219.028397 524.438477,206.918106 519.404907,195.372879
        C514.304993,183.675507 508.182831,172.287262 501.286530,161.548279
        C494.480469,150.949875 486.741852,140.796097 478.313538,131.436768
        C469.774963,121.954971 459.891022,113.684677 450.316040,104.665649
    z"/>
                <path fill="#FEFEFE" opacity="1.000000" stroke="none"
                      d="M180.398834,490.678711
        C212.309006,509.854645 246.491348,520.959778 283.178406,524.705994
        C211.292740,524.705994 139.407089,524.705994 67.259575,524.705994
        C67.259575,453.004425 67.259575,381.277618 67.259575,309.550781
        C76.620827,387.476959 113.559975,448.203827 180.398834,490.678711
    z"/>
            </svg>